<svg xmlns="http://www.w3.org/2000/svg" viewBox="0 0 1024 1024" role="img" aria-labelledby="title desc">
  <title id="title">Impala — Retro Notes</title>
  <desc id="desc">A warm retro notebook icon with a lightning-fast note mark.</desc>
  <defs>
    <linearGradient id="sun" x1="235" y1="176" x2="791" y2="838" gradientUnits="userSpaceOnUse">
      <stop stop-color="#FFD85A"/><stop offset="1" stop-color="#EE9C34"/>
    </linearGradient>
    <filter id="grain" x="-20%" y="-20%" width="140%" height="140%">
      <feTurbulence type="fractalNoise" baseFrequency=".85" numOctaves="2" seed="12" result="noise"/>
      <feColorMatrix in="noise" type="saturate" values="0" result="mono"/>
      <feComponentTransfer in="mono"><feFuncA type="table" tableValues="0 .09"/></feComponentTransfer>
      <feBlend in="SourceGraphic" in2="mono" mode="multiply"/>
    </filter>
  </defs>
  <rect width="1024" height="1024" rx="210" fill="#173A5E"/>
  <path d="M69 748C227 692 304 785 461 730s248-2 494-84v168c-198 87-317 4-488 64S202 831 69 903Z" fill="#102B48" opacity=".72"/>
  <circle cx="743" cy="310" r="151" fill="#F17A39"/>
  <path d="M592 310h302M610 249h266M610 371h266" stroke="#173A5E" stroke-width="24"/>
  <g transform="rotate(-7 512 530)" filter="url(#grain)">
    <rect x="238" y="192" width="518" height="642" rx="29" fill="#FFF3D1" stroke="#102B48" stroke-width="28"/>
    <path d="M238 283h518" stroke="#102B48" stroke-width="28"/>
    <path d="M323 372h342M323 460h342M323 548h342M323 636h235" stroke="#D4B985" stroke-width="18" stroke-linecap="round"/>
    <path d="M236 285h-35M236 398h-35M236 511h-35M236 624h-35M236 737h-35" stroke="#F5C955" stroke-width="38" stroke-linecap="round"/>
    <path d="M236 285h-35M236 398h-35M236 511h-35M236 624h-35M236 737h-35" stroke="#102B48" stroke-width="12" stroke-linecap="round"/>
    <path d="m467 670 33-115 117-117 78 78-117 117z" fill="#F17A39" stroke="#102B48" stroke-width="19" stroke-linejoin="round"/>
    <path d="m617 438 28-28 78 78-28 28z" fill="#F5C955" stroke="#102B48" stroke-width="19" stroke-linejoin="round"/>
    <path d="m467 670 12-53 41 41z" fill="#173A5E"/>
  </g>
  <rect x="372" y="822" width="278" height="50" rx="25" fill="#F5C955"/>
</svg>